<svg width="16" height="16" viewBox="0 0 16 16" fill="none" xmlns="http://www.w3.org/2000/svg">
<path fill-rule="evenodd" clip-rule="evenodd" d="M12.6536 5.82895C13.7969 6.43601 14.1743 7.79639 13.4965 8.86746L10.0147 14.3696C9.33696 15.4407 7.86065 15.8168 6.71732 15.2098C5.57399 14.6027 5.19659 13.2423 5.87437 12.1713L9.35618 6.66912C10.034 5.59805 11.5103 5.2219 12.6536 5.82895Z" fill="url(#paint0_linear_251_5)"/>
<path fill-rule="evenodd" clip-rule="evenodd" d="M4.59352 5.59051C3.26341 5.60511 2.1769 6.61578 2.16674 7.84791C2.15658 9.08003 3.22662 10.067 4.55673 10.0524L10.8906 9.98292C11.7057 10.0349 12.1942 10.8706 11.7601 11.5528L13.5241 8.78056L13.5193 8.78266C13.7058 8.46546 13.8132 8.10348 13.8164 7.72005C13.8266 6.48792 12.7565 5.50092 11.4264 5.51552L4.59352 5.59051Z" fill="#00AB55"/>
<path fill-rule="evenodd" clip-rule="evenodd" d="M8.97503 4.64541C10.1316 4.01984 10.5398 2.6541 9.88673 1.59494C9.23367 0.53579 7.76666 0.184306 6.61007 0.80988C6.25322 1.0029 5.96761 1.26637 5.76244 1.56957L5.75908 1.56412L3.54557 5.05415L7.8522 4.95878L7.84884 4.95333C8.23177 4.93843 8.61817 4.83843 8.97503 4.64541Z" fill="#00AB55"/>
<defs>
<linearGradient id="paint0_linear_251_5" x1="13.442" y1="2.92474" x2="0.795572" y2="7.04697" gradientUnits="userSpaceOnUse">
<stop stop-color="#007B55"/>
<stop offset="1" stop-color="#00AB55"/>
</linearGradient>
</defs>
</svg>
