<svg width="173" height="29" viewBox="0 0 173 29" fill="none" xmlns="http://www.w3.org/2000/svg">
<path fill-rule="evenodd" clip-rule="evenodd" d="M88 21V9H98.2978C99.1979 9 99.9064 9.19308 100.355 9.58021C100.742 9.9025 101 10.5476 101 11.3228V14.0322C101 14.8069 100.742 15.4515 100.355 15.7738C99.9064 16.1614 99.1979 16.354 98.2978 16.354H90.7669V21H88ZM97.0101 11.0644H90.7669V14.2891H97.0101C97.5241 14.2891 97.8465 14.2262 98.0405 14.0322C98.1694 13.903 98.2978 13.6446 98.2978 13.3223V12.0317C98.2978 11.7089 98.1694 11.4505 98.0405 11.3228C97.8465 11.1292 97.5241 11.0644 97.0101 11.0644Z" fill="#767676"/>
<path fill-rule="evenodd" clip-rule="evenodd" d="M105 21V9H115.792C116.811 9 117.555 9.19308 118.029 9.58021C118.438 9.9025 118.71 10.5476 118.71 11.3228V14.1609C118.71 14.999 118.438 15.5812 118.029 15.9035C117.555 16.2901 116.811 16.4837 115.792 16.4837H114.162L120 21H115.792L110.702 16.4837H107.917V21H105ZM114.503 11.0644H107.917V14.4193H114.503C115.044 14.4193 115.385 14.354 115.587 14.2262C115.723 14.0965 115.861 13.8381 115.861 13.452V12.0317C115.861 11.7089 115.723 11.4505 115.587 11.3228C115.385 11.1292 115.044 11.0644 114.503 11.0644Z" fill="#767676"/>
<path fill-rule="evenodd" clip-rule="evenodd" d="M124 21V9H136.866V11.0644H126.964V13.7094H132.756V15.7738H126.964V18.7416H137V21H124Z" fill="#767676"/>
<path fill-rule="evenodd" clip-rule="evenodd" d="M152.24 11.1292H144.028V13.7094H151.837C153.047 13.7094 153.923 13.903 154.328 14.2896C154.796 14.6777 155 15.4515 155 16.5485V18.1619C155 19.257 154.796 20.0312 154.328 20.4193C153.923 20.8064 153.047 21 151.837 21H144.097C142.884 21 142.079 20.8064 141.606 20.4193C141.203 20.0312 141 19.257 141 18.1619V17.8381L143.56 17.3228V18.7416H152.377V16.0322H144.567C143.357 16.0322 142.55 15.8386 142.145 15.3871C141.673 14.999 141.47 14.2896 141.47 13.1931V11.8386C141.47 10.7421 141.673 10.0322 142.145 9.64505C142.55 9.19308 143.357 9 144.567 9H151.701C152.913 9 153.721 9.19308 154.126 9.58021C154.594 9.96734 154.796 10.6772 154.796 11.6441V11.9035L152.24 12.4832V11.1292Z" fill="#767676"/>
<path fill-rule="evenodd" clip-rule="evenodd" d="M170.24 11.1292H162.028V13.7094H169.837C171.047 13.7094 171.923 13.903 172.328 14.2896C172.796 14.6777 173 15.4515 173 16.5485V18.1619C173 19.257 172.796 20.0312 172.328 20.4193C171.923 20.8064 171.047 21 169.837 21H162.097C160.884 21 160.079 20.8064 159.606 20.4193C159.203 20.0312 159 19.257 159 18.1619V17.8381L161.56 17.3228V18.7416H170.377V16.0322H162.567C161.357 16.0322 160.55 15.8386 160.145 15.3871C159.673 14.999 159.47 14.2896 159.47 13.1931V11.8386C159.47 10.7421 159.673 10.0322 160.145 9.64505C160.55 9.19308 161.357 9 162.567 9H169.701C170.913 9 171.721 9.19308 172.126 9.58021C172.594 9.96734 172.796 10.6772 172.796 11.6441V11.9035L170.24 12.4832V11.1292Z" fill="#767676"/>
<path fill-rule="evenodd" clip-rule="evenodd" d="M68.1318 21L73.9257 14.8708L68 9H71.8191L75.7054 13.0639L79.4564 9H82.682L77.3503 14.548L84 21H80.1152L75.6397 16.354L71.4898 21H68.1318Z" fill="#767676"/>
<path fill-rule="evenodd" clip-rule="evenodd" d="M7.20072 21L0 9H3.3336L8.33376 17.7094L13.1334 9H16L9.20028 21H7.20072Z" fill="#767676"/>
<path fill-rule="evenodd" clip-rule="evenodd" d="M20 21V9H21.8536L30.2272 16.0965C30.5475 16.354 30.8044 16.548 30.9953 16.7421C31.2513 16.9352 31.4426 17.1931 31.6349 17.3876C31.5706 16.7421 31.5059 16.2253 31.5059 15.9683V15.3218V9H34V21H32.0831L23.3236 13.5807C23.1332 13.3871 22.9405 13.2579 22.8125 13.0639C22.6202 12.9352 22.4951 12.8064 22.3666 12.6129C22.4303 12.9995 22.4303 13.3223 22.4303 13.7094C22.4951 14.0322 22.4951 14.2891 22.4951 14.548V21H20Z" fill="#767676"/>
<path fill-rule="evenodd" clip-rule="evenodd" d="M64 27.619C64 28.3818 63.3765 29 62.6071 29H39.3929C38.6235 29 38 28.3818 38 27.619V1.38095C38 0.618206 38.6235 0 39.3929 0H62.6071C63.3765 0 64 0.618206 64 1.38095V27.619Z" fill="#9F224E"/>
<path fill-rule="evenodd" clip-rule="evenodd" d="M46.2174 10.6513V11.1042V11.9623H47.8889H52.913V16.0377H47.8889H46.2174V16.9909V17.4438V18.3494V19.7079V21.0189H47.8889H60.5652V24.6415H47.3126H41.4348V3.35849H47.3126H60.5652V6.98113H47.8889H46.2174V8.38717V9.74566V10.6513ZM47.6522 8.33962H60.7039C61.4959 8.33962 62 7.77857 62 7.02868V3.40604C62 2.65615 61.4959 2 60.7039 2H47.3126H41.5735C40.781 2 40 2.65615 40 3.40604V24.6891C40 25.4389 40.781 26 41.5735 26H47.3126H60.7039C61.4959 26 62 25.4389 62 24.6891V21.0664C62 20.3165 61.4959 19.6604 60.7039 19.6604H47.6522V18.3494V17.3962H53.0517C53.8437 17.3962 54.3478 16.8352 54.3478 16.0853V12.0098C54.3478 11.2599 53.8437 10.6038 53.0517 10.6038H47.6522V9.74566V8.33962Z" fill="white"/>
</svg>
