<svg width="53" height="16" viewBox="0 0 53 16" fill="none" xmlns="http://www.w3.org/2000/svg">
<path fill-rule="evenodd" clip-rule="evenodd" d="M10.7269 5.68422C11.8637 6.33175 12.239 7.78283 11.5651 8.9253L8.10315 14.7943C7.42924 15.9367 5.96138 16.338 4.82458 15.6904C3.68778 15.0429 3.31254 13.5918 3.98644 12.4494L7.44835 6.5804C8.12226 5.43793 9.59013 5.03669 10.7269 5.68422Z" fill="url(#paint0_linear_3419_20451)"/>
<path fill-rule="evenodd" clip-rule="evenodd" d="M2.71291 5.42988C1.3904 5.44545 0.3101 6.5235 0.299998 7.83778C0.289896 9.15205 1.35382 10.2049 2.67633 10.1893L8.97401 10.1151C9.78443 10.1706 10.2702 11.062 9.83852 11.7897L11.5925 8.8326L11.5877 8.83484C11.7732 8.4965 11.88 8.11039 11.8831 7.70139C11.8932 6.38712 10.8293 5.33432 9.50676 5.34989L2.71291 5.42988Z" fill="#919FAC"/>
<path fill-rule="evenodd" clip-rule="evenodd" d="M7.06938 4.42178C8.21936 3.7545 8.62521 2.2977 7.97588 1.16794C7.32655 0.0381761 5.86792 -0.336741 4.71794 0.330539C4.36313 0.536422 4.07915 0.817466 3.87515 1.14087L3.87181 1.13506L1.67095 4.85777L5.95297 4.75604L5.94963 4.75022C6.33037 4.73433 6.71457 4.62766 7.06938 4.42178Z" fill="#919FAC"/>
<path d="M17.419 11.2C17.1404 11.2 16.87 11.1646 16.6077 11.0938C16.3455 11.0201 16.1079 10.911 15.8948 10.7665C15.6818 10.622 15.5042 10.4436 15.3622 10.2311C15.2229 10.0158 15.1355 9.76644 15.1 9.48313H15.8948C15.944 9.71544 16.041 9.91093 16.1857 10.0696C16.3332 10.2282 16.5121 10.3472 16.7225 10.4266C16.9355 10.5059 17.1663 10.5455 17.4149 10.5455C17.6935 10.5455 17.9421 10.5059 18.1606 10.4266C18.3818 10.3444 18.5553 10.2282 18.6809 10.0781C18.8093 9.92793 18.8735 9.74802 18.8735 9.53837C18.8735 9.35422 18.8325 9.19415 18.7506 9.05816C18.6714 8.92217 18.5553 8.80885 18.4023 8.71819C18.2494 8.62753 18.0636 8.5567 17.8451 8.5057L16.6815 8.22522C16.2445 8.12606 15.9017 7.949 15.6531 7.69401C15.4073 7.43903 15.2816 7.10189 15.2762 6.68259C15.2762 6.32845 15.3663 6.01681 15.5466 5.74766C15.7296 5.47852 15.9795 5.26887 16.2964 5.11871C16.6159 4.96856 16.9806 4.89348 17.3903 4.89348C17.8629 4.89348 18.2603 4.97706 18.5826 5.14421C18.9049 5.31136 19.148 5.53093 19.3119 5.80291C19.4758 6.07489 19.5591 6.36528 19.5618 6.67409H18.7793C18.7547 6.39645 18.6755 6.17688 18.5416 6.01539C18.4105 5.85107 18.2453 5.73492 18.0459 5.66692C17.8465 5.59609 17.6293 5.56068 17.3944 5.56068C17.2251 5.56068 17.0612 5.58334 16.9027 5.62867C16.7471 5.67117 16.6064 5.73633 16.4807 5.82416C16.3578 5.91199 16.2595 6.02106 16.1857 6.15138C16.112 6.28171 16.0751 6.43328 16.0751 6.6061C16.0751 6.82708 16.1475 7.00698 16.2923 7.14581C16.4398 7.28463 16.7061 7.40362 17.0912 7.50278L18.2179 7.78326C18.5129 7.84842 18.7533 7.94475 18.9391 8.07224C19.1275 8.19973 19.2723 8.34421 19.3734 8.5057C19.4772 8.66719 19.5482 8.83576 19.5864 9.01141C19.6274 9.18707 19.6479 9.35989 19.6479 9.52987C19.6479 9.83868 19.5591 10.1206 19.3816 10.3756C19.204 10.6277 18.9486 10.8289 18.6154 10.979C18.2849 11.1263 17.8861 11.2 17.419 11.2Z" fill="#637381"/>
<path d="M20.7732 11.115V6.72084H21.5025V7.35829C21.6199 7.16564 21.7811 6.99707 21.986 6.85258C22.1908 6.70809 22.4571 6.63585 22.7849 6.63585C22.9379 6.63585 23.0936 6.66276 23.252 6.71659C23.4132 6.77042 23.5607 6.85116 23.6945 6.95882C23.8283 7.06648 23.9321 7.19822 24.0059 7.35404C24.137 7.13872 24.3145 6.9659 24.5385 6.83558C24.7625 6.70242 25.0152 6.63585 25.2965 6.63585C25.444 6.63585 25.5983 6.65993 25.7595 6.70809C25.9206 6.75342 26.0695 6.83558 26.2061 6.95457C26.3454 7.07073 26.4587 7.23363 26.5462 7.44328C26.6336 7.6501 26.6773 7.91641 26.6773 8.24222V11.115H25.9152V8.31872C25.9152 8.0524 25.8742 7.847 25.7923 7.70251C25.7103 7.55519 25.6024 7.45178 25.4686 7.39229C25.3375 7.33279 25.1968 7.30304 25.0466 7.30304C24.9155 7.30304 24.7762 7.32996 24.6287 7.38379C24.4812 7.43762 24.3555 7.52828 24.2517 7.65577C24.1479 7.78326 24.096 7.95749 24.096 8.17848V11.115H23.3421V8.08923C23.3421 7.91641 23.2971 7.77193 23.2069 7.65577C23.1195 7.53961 23.0089 7.45178 22.8751 7.39229C22.7439 7.33279 22.6128 7.30304 22.4817 7.30304C22.337 7.30304 22.1908 7.33279 22.0433 7.39229C21.8986 7.45178 21.7756 7.54669 21.6746 7.67702C21.5762 7.80451 21.5271 7.97166 21.5271 8.17848V11.115H20.7732Z" fill="#637381"/>
<path d="M29.0191 11.2C28.7459 11.2 28.5042 11.1504 28.2939 11.0513C28.0835 10.9493 27.9183 10.8034 27.7981 10.6135C27.6807 10.4237 27.6219 10.1942 27.6219 9.92509C27.6219 9.4378 27.7858 9.07516 28.1136 8.83718C28.4414 8.5992 28.9672 8.4717 29.691 8.45471L30.449 8.43346V8.08923C30.449 7.82009 30.3711 7.6076 30.2155 7.45178C30.0598 7.29313 29.818 7.2138 29.4902 7.2138C29.2471 7.21663 29.0327 7.27613 28.847 7.39229C28.664 7.50845 28.5452 7.69826 28.4905 7.96174H27.8227C27.8391 7.6756 27.9169 7.43478 28.0562 7.2393C28.1955 7.04098 28.3895 6.89083 28.638 6.78883C28.8893 6.68684 29.1857 6.63585 29.5271 6.63585C29.8959 6.63585 30.2018 6.68968 30.4449 6.79733C30.6907 6.90499 30.8737 7.06365 30.9939 7.2733C31.1168 7.48295 31.1783 7.74076 31.1783 8.04674V11.115H30.5309L30.4777 10.2906C30.3138 10.6334 30.1048 10.8714 29.8508 11.0045C29.5995 11.1348 29.3223 11.2 29.0191 11.2ZM29.2485 10.6348C29.3906 10.6348 29.5312 10.6079 29.6705 10.554C29.8126 10.5002 29.9423 10.428 30.0598 10.3373C30.1772 10.2438 30.2701 10.1404 30.3384 10.0271C30.4094 9.91093 30.4463 9.79194 30.449 9.67011V8.91792L29.818 8.93067C29.4957 8.93634 29.2253 8.97033 29.0068 9.03266C28.791 9.09499 28.6285 9.19273 28.5192 9.32589C28.4127 9.45905 28.3594 9.63328 28.3594 9.8486C28.3594 10.0951 28.4414 10.2877 28.6053 10.4266C28.7719 10.5654 28.9863 10.6348 29.2485 10.6348Z" fill="#637381"/>
<path d="M32.4726 11.115V6.72084H33.1937V7.56652C33.2648 7.35687 33.3645 7.18405 33.4928 7.04806C33.6212 6.90924 33.7673 6.80583 33.9312 6.73784C34.0979 6.66984 34.2699 6.63585 34.4475 6.63585C34.5103 6.63585 34.5718 6.6401 34.6319 6.6486C34.6919 6.65709 34.7384 6.67126 34.7712 6.69109V7.45178C34.7302 7.43195 34.6769 7.4192 34.6114 7.41354C34.5485 7.40504 34.4953 7.40079 34.4516 7.40079C34.2822 7.38945 34.1238 7.40079 33.9763 7.43478C33.8288 7.46595 33.6991 7.52119 33.5871 7.60052C33.4751 7.67985 33.3863 7.78467 33.3208 7.915C33.2579 8.04249 33.2265 8.19831 33.2265 8.38246V11.115H32.4726Z" fill="#637381"/>
<path d="M37.898 7.29455H36.9433V10.0271C36.9433 10.1829 36.9583 10.2976 36.9884 10.3713C37.0212 10.4421 37.0744 10.4875 37.1482 10.5073C37.2247 10.5271 37.3285 10.537 37.4596 10.537H37.9226V11.064C37.8707 11.0838 37.7914 11.1008 37.6849 11.115C37.5811 11.1292 37.4514 11.1362 37.2957 11.1362C37.0034 11.1362 36.7767 11.0952 36.6155 11.013C36.4544 10.9308 36.341 10.809 36.2755 10.6475C36.2127 10.486 36.1812 10.2877 36.1812 10.0526V7.29455H35.4929V6.72084H36.2017L36.3861 5.44169H36.9433V6.71659H37.898V7.29455Z" fill="#637381"/>
<path d="M38.6997 11.115L40.8426 4.96997H41.6989L43.8417 11.115H43.0674L42.4856 9.43213H40.0641L39.47 11.115H38.6997ZM40.2567 8.70969H42.2848L41.2769 5.74766L40.2567 8.70969Z" fill="#637381"/>
<path d="M46.2205 11.2C45.6715 11.2 45.2358 11.0045 44.9135 10.6135C44.5912 10.2226 44.43 9.6517 44.43 8.90092C44.43 8.44479 44.4942 8.04674 44.6226 7.70676C44.7537 7.36679 44.9476 7.10331 45.2044 6.91632C45.4611 6.72934 45.7807 6.63585 46.1631 6.63585C46.3652 6.63585 46.5442 6.66276 46.6998 6.71659C46.8583 6.77042 46.9948 6.83841 47.1096 6.92057C47.2243 7.00273 47.3172 7.08773 47.3882 7.17555C47.4619 7.26338 47.5166 7.34413 47.5521 7.41779V4.79999H48.3141V11.115H47.7364L47.6545 10.2141C47.6272 10.2991 47.5835 10.3982 47.5234 10.5115C47.4633 10.622 47.3786 10.7311 47.2694 10.8388C47.1601 10.9436 47.0194 11.03 46.8473 11.098C46.678 11.166 46.469 11.2 46.2205 11.2ZM46.3557 10.5965C46.7845 10.5965 47.0905 10.462 47.2735 10.1928C47.4592 9.92084 47.5521 9.47746 47.5521 8.86267C47.5493 8.51987 47.507 8.22806 47.4251 7.98724C47.3458 7.74643 47.2202 7.56369 47.0481 7.43903C46.8788 7.31154 46.6534 7.2478 46.3721 7.2478C46.0224 7.2478 45.7384 7.37671 45.5199 7.63452C45.3013 7.89233 45.1921 8.30172 45.1921 8.86267C45.1921 9.4123 45.2904 9.83868 45.4871 10.1418C45.6865 10.445 45.976 10.5965 46.3557 10.5965Z" fill="#637381"/>
<path d="M51.0693 11.2C50.7743 11.2 50.4998 11.1532 50.2458 11.0598C49.9945 10.9634 49.7855 10.8147 49.6189 10.6135C49.4523 10.4096 49.3471 10.1503 49.3034 9.83585H49.9918C50.03 10.0087 50.0983 10.1532 50.1966 10.2693C50.2977 10.3826 50.4233 10.4691 50.5736 10.5285C50.7238 10.5852 50.8877 10.6135 51.0652 10.6135C51.3493 10.6135 51.5787 10.5583 51.7536 10.4478C51.9284 10.3373 52.0158 10.1673 52.0158 9.93784C52.0158 9.77635 51.9693 9.64745 51.8765 9.55112C51.7863 9.45196 51.6457 9.37972 51.4545 9.33439L50.5777 9.10916C50.2362 9.02416 49.9631 8.89101 49.7582 8.70969C49.5534 8.52837 49.4509 8.2748 49.4509 7.949C49.4482 7.69118 49.5069 7.46453 49.6271 7.26905C49.7473 7.07356 49.9276 6.91916 50.1679 6.80583C50.4083 6.69251 50.7074 6.63585 51.0652 6.63585C51.5241 6.63585 51.8942 6.7435 52.1756 6.95882C52.4596 7.1713 52.6071 7.48436 52.6181 7.898H51.9502C51.9229 7.68835 51.8314 7.52261 51.6757 7.40079C51.5227 7.27613 51.3165 7.2138 51.057 7.2138C50.7866 7.2138 50.5667 7.27046 50.3974 7.38379C50.228 7.49428 50.1434 7.6671 50.1434 7.90225C50.1434 8.05807 50.2034 8.18131 50.3236 8.27197C50.4438 8.3598 50.6214 8.43346 50.8563 8.49295L51.7044 8.71394C51.9011 8.76777 52.0622 8.83859 52.1879 8.92642C52.3162 9.01425 52.4173 9.11199 52.4911 9.21965C52.5675 9.32731 52.6208 9.44063 52.6508 9.55962C52.6836 9.67578 52.7 9.78769 52.7 9.89535C52.7 10.1645 52.6345 10.3968 52.5033 10.5923C52.375 10.7849 52.1892 10.9351 51.9461 11.0428C51.7058 11.1476 51.4135 11.2 51.0693 11.2Z" fill="#637381"/>
<defs>
<linearGradient id="paint0_linear_3419_20451" x1="6.09993" y1="0" x2="6.09993" y2="16" gradientUnits="userSpaceOnUse">
<stop stop-color="#919FAC"/>
<stop offset="1" stop-color="#818A93"/>
</linearGradient>
</defs>
</svg>
