<svg width="53" height="16" viewBox="0 0 53 16" fill="none" xmlns="http://www.w3.org/2000/svg">
<path fill-rule="evenodd" clip-rule="evenodd" d="M10.6699 5.69451C11.7927 6.33917 12.1633 7.78377 11.4977 8.9212L8.07849 14.7641C7.4129 15.9015 5.96318 16.3009 4.84042 15.6563C3.71765 15.0116 3.34703 13.567 4.01263 12.4296L7.43178 6.58672C8.0974 5.4493 9.54713 5.04988 10.6699 5.69451Z" fill="url(#paint0_linear_3419_20530)"/>
<path fill-rule="evenodd" clip-rule="evenodd" d="M7.0575 4.43767C8.19325 3.77337 8.59414 2.32304 7.95281 1.1983C7.31147 0.0735595 5.87089 -0.299692 4.7351 0.364623C4.38466 0.569589 4.10418 0.849385 3.90271 1.17135L3.8994 1.16556L1.72571 4.87174L5.95489 4.77046L5.95158 4.76466C6.32763 4.74884 6.70708 4.64265 7.0575 4.43767Z" fill="#048845"/>
<path fill-rule="evenodd" clip-rule="evenodd" d="M2.75478 5.44133C1.44859 5.45679 0.38163 6.53006 0.371653 7.83847C0.361675 9.14693 1.41246 10.1951 2.71864 10.1795L8.93856 10.1057C9.739 10.1609 10.2188 11.0483 9.79243 11.7728L11.5247 8.8289L11.52 8.83114C11.7032 8.49429 11.8086 8.10992 11.8117 7.70273C11.8217 6.39427 10.771 5.34614 9.46478 5.36168L2.75478 5.44133Z" fill="#048845"/>
<path d="M17.3475 11.2C17.0688 11.2 16.7984 11.1646 16.5362 11.0938C16.274 11.0201 16.0364 10.911 15.8233 10.7665C15.6102 10.622 15.4327 10.4436 15.2907 10.2311C15.1514 10.0158 15.064 9.76644 15.0284 9.48313H15.8233C15.8725 9.71544 15.9694 9.91093 16.1142 10.0696C16.2617 10.2282 16.4406 10.3472 16.6509 10.4266C16.864 10.5059 17.0948 10.5455 17.3434 10.5455C17.622 10.5455 17.8705 10.5059 18.0891 10.4266C18.3103 10.3444 18.4838 10.2282 18.6094 10.0781C18.7378 9.92793 18.802 9.74802 18.802 9.53837C18.802 9.35422 18.761 9.19415 18.6791 9.05816C18.5998 8.92217 18.4838 8.80885 18.3308 8.71819C18.1778 8.62753 17.9921 8.5567 17.7736 8.5057L16.61 8.22522C16.1729 8.12606 15.8301 7.949 15.5816 7.69401C15.3357 7.43903 15.2101 7.10189 15.2046 6.68259C15.2046 6.32845 15.2948 6.01681 15.475 5.74766C15.658 5.47852 15.908 5.26887 16.2248 5.11871C16.5444 4.96856 16.9091 4.89348 17.3188 4.89348C17.7913 4.89348 18.1888 4.97706 18.5111 5.14421C18.8334 5.31136 19.0765 5.53093 19.2404 5.80291C19.4043 6.07489 19.4876 6.36528 19.4903 6.67409H18.7077C18.6831 6.39645 18.6039 6.17688 18.4701 6.01539C18.339 5.85107 18.1737 5.73492 17.9743 5.66692C17.7749 5.59609 17.5578 5.56068 17.3229 5.56068C17.1535 5.56068 16.9896 5.58334 16.8312 5.62867C16.6755 5.67117 16.5348 5.73633 16.4092 5.82416C16.2863 5.91199 16.188 6.02106 16.1142 6.15138C16.0405 6.28171 16.0036 6.43328 16.0036 6.6061C16.0036 6.82708 16.076 7.00698 16.2207 7.14581C16.3682 7.28463 16.6345 7.40362 17.0197 7.50278L18.1464 7.78326C18.4414 7.84842 18.6818 7.94475 18.8675 8.07224C19.056 8.19973 19.2008 8.34421 19.3018 8.5057C19.4056 8.66719 19.4766 8.83576 19.5149 9.01141C19.5559 9.18707 19.5763 9.35989 19.5763 9.52987C19.5763 9.83868 19.4876 10.1206 19.31 10.3756C19.1325 10.6277 18.8771 10.8289 18.5438 10.979C18.2133 11.1263 17.8145 11.2 17.3475 11.2Z" fill="#637381"/>
<path d="M20.7017 11.115V6.72084H21.431V7.35829C21.5484 7.16564 21.7096 6.99707 21.9144 6.85258C22.1193 6.70809 22.3856 6.63585 22.7134 6.63585C22.8663 6.63585 23.022 6.66276 23.1805 6.71659C23.3416 6.77042 23.4891 6.85116 23.623 6.95882C23.7568 7.06648 23.8606 7.19822 23.9344 7.35404C24.0655 7.13872 24.243 6.9659 24.467 6.83558C24.691 6.70242 24.9436 6.63585 25.225 6.63585C25.3725 6.63585 25.5268 6.65993 25.688 6.70809C25.8491 6.75342 25.998 6.83558 26.1346 6.95457C26.2739 7.07073 26.3872 7.23363 26.4746 7.44328C26.562 7.6501 26.6057 7.91641 26.6057 8.24222V11.115H25.8437V8.31872C25.8437 8.0524 25.8027 7.847 25.7207 7.70251C25.6388 7.55519 25.5309 7.45178 25.3971 7.39229C25.2659 7.33279 25.1253 7.30304 24.975 7.30304C24.8439 7.30304 24.7046 7.32996 24.5571 7.38379C24.4096 7.43762 24.284 7.52828 24.1802 7.65577C24.0764 7.78326 24.0245 7.95749 24.0245 8.17848V11.115H23.2706V8.08923C23.2706 7.91641 23.2255 7.77193 23.1354 7.65577C23.048 7.53961 22.9374 7.45178 22.8035 7.39229C22.6724 7.33279 22.5413 7.30304 22.4102 7.30304C22.2654 7.30304 22.1193 7.33279 21.9718 7.39229C21.827 7.45178 21.7041 7.54669 21.603 7.67702C21.5047 7.80451 21.4555 7.97166 21.4555 8.17848V11.115H20.7017Z" fill="#637381"/>
<path d="M28.9475 11.2C28.6744 11.2 28.4327 11.1504 28.2223 11.0513C28.012 10.9493 27.8468 10.8034 27.7266 10.6135C27.6091 10.4237 27.5504 10.1942 27.5504 9.92509C27.5504 9.4378 27.7143 9.07516 28.0421 8.83718C28.3698 8.5992 28.8956 8.4717 29.6195 8.45471L30.3775 8.43346V8.08923C30.3775 7.82009 30.2996 7.6076 30.1439 7.45178C29.9882 7.29313 29.7465 7.2138 29.4187 7.2138C29.1756 7.21663 28.9612 7.27613 28.7755 7.39229C28.5924 7.50845 28.4736 7.69826 28.419 7.96174H27.7512C27.7675 7.6756 27.8454 7.43478 27.9847 7.2393C28.124 7.04098 28.3179 6.89083 28.5665 6.78883C28.8178 6.68684 29.1142 6.63585 29.4556 6.63585C29.8243 6.63585 30.1303 6.68968 30.3734 6.79733C30.6192 6.90499 30.8022 7.06365 30.9224 7.2733C31.0453 7.48295 31.1068 7.74076 31.1068 8.04674V11.115H30.4594L30.4061 10.2906C30.2423 10.6334 30.0333 10.8714 29.7793 11.0045C29.528 11.1348 29.2507 11.2 28.9475 11.2ZM29.177 10.6348C29.319 10.6348 29.4597 10.6079 29.599 10.554C29.741 10.5002 29.8708 10.428 29.9882 10.3373C30.1057 10.2438 30.1985 10.1404 30.2668 10.0271C30.3379 9.91093 30.3747 9.79194 30.3775 9.67011V8.91792L29.7465 8.93067C29.4242 8.93634 29.1538 8.97033 28.9352 9.03266C28.7195 9.09499 28.5569 9.19273 28.4477 9.32589C28.3412 9.45905 28.2879 9.63328 28.2879 9.8486C28.2879 10.0951 28.3698 10.2877 28.5337 10.4266C28.7003 10.5654 28.9148 10.6348 29.177 10.6348Z" fill="#637381"/>
<path d="M32.4011 11.115V6.72084H33.1222V7.56652C33.1932 7.35687 33.2929 7.18405 33.4213 7.04806C33.5497 6.90924 33.6958 6.80583 33.8597 6.73784C34.0263 6.66984 34.1984 6.63585 34.3759 6.63585C34.4388 6.63585 34.5002 6.6401 34.5603 6.6486C34.6204 6.65709 34.6668 6.67126 34.6996 6.69109V7.45178C34.6587 7.43195 34.6054 7.4192 34.5398 7.41354C34.477 7.40504 34.4237 7.40079 34.38 7.40079C34.2107 7.38945 34.0523 7.40079 33.9048 7.43478C33.7573 7.46595 33.6275 7.52119 33.5155 7.60052C33.4035 7.67985 33.3148 7.78467 33.2492 7.915C33.1864 8.04249 33.155 8.19831 33.155 8.38246V11.115H32.4011Z" fill="#637381"/>
<path d="M37.8264 7.29455H36.8718V10.0271C36.8718 10.1829 36.8868 10.2976 36.9169 10.3713C36.9496 10.4421 37.0029 10.4875 37.0766 10.5073C37.1531 10.5271 37.2569 10.537 37.388 10.537H37.851V11.064C37.7991 11.0838 37.7199 11.1008 37.6134 11.115C37.5096 11.1292 37.3798 11.1362 37.2241 11.1362C36.9319 11.1362 36.7052 11.0952 36.544 11.013C36.3829 10.9308 36.2695 10.809 36.2039 10.6475C36.1411 10.486 36.1097 10.2877 36.1097 10.0526V7.29455H35.4214V6.72084H36.1302L36.3146 5.44169H36.8718V6.71659H37.8264V7.29455Z" fill="#637381"/>
<path d="M38.6282 11.115L40.771 4.96997H41.6274L43.7702 11.115H42.9958L42.414 9.43213H39.9926L39.3985 11.115H38.6282ZM40.1851 8.70969H42.2133L41.2053 5.74766L40.1851 8.70969Z" fill="#637381"/>
<path d="M46.1489 11.2C45.5999 11.2 45.1642 11.0045 44.8419 10.6135C44.5196 10.2226 44.3585 9.6517 44.3585 8.90092C44.3585 8.44479 44.4227 8.04674 44.551 7.70676C44.6821 7.36679 44.8761 7.10331 45.1328 6.91632C45.3896 6.72934 45.7092 6.63585 46.0916 6.63585C46.2937 6.63585 46.4726 6.66276 46.6283 6.71659C46.7867 6.77042 46.9233 6.83841 47.038 6.92057C47.1528 7.00273 47.2456 7.08773 47.3166 7.17555C47.3904 7.26338 47.445 7.34413 47.4805 7.41779V4.79999H48.2426V11.115H47.6649L47.583 10.2141C47.5556 10.2991 47.5119 10.3982 47.4519 10.5115C47.3918 10.622 47.3071 10.7311 47.1978 10.8388C47.0886 10.9436 46.9479 11.03 46.7758 11.098C46.6065 11.166 46.3975 11.2 46.1489 11.2ZM46.2841 10.5965C46.713 10.5965 47.0189 10.462 47.2019 10.1928C47.3877 9.92084 47.4805 9.47746 47.4805 8.86267C47.4778 8.51987 47.4355 8.22806 47.3535 7.98724C47.2743 7.74643 47.1487 7.56369 46.9766 7.43903C46.8072 7.31154 46.5819 7.2478 46.3005 7.2478C45.9509 7.2478 45.6668 7.37671 45.4483 7.63452C45.2298 7.89233 45.1205 8.30172 45.1205 8.86267C45.1205 9.4123 45.2189 9.83868 45.4155 10.1418C45.6149 10.445 45.9045 10.5965 46.2841 10.5965Z" fill="#637381"/>
<path d="M50.9978 11.2C50.7028 11.2 50.4283 11.1532 50.1743 11.0598C49.923 10.9634 49.714 10.8147 49.5474 10.6135C49.3808 10.4096 49.2756 10.1503 49.2319 9.83585H49.9202C49.9585 10.0087 50.0268 10.1532 50.1251 10.2693C50.2262 10.3826 50.3518 10.4691 50.502 10.5285C50.6523 10.5852 50.8161 10.6135 50.9937 10.6135C51.2778 10.6135 51.5072 10.5583 51.682 10.4478C51.8568 10.3373 51.9442 10.1673 51.9442 9.93784C51.9442 9.77635 51.8978 9.64745 51.8049 9.55112C51.7148 9.45196 51.5741 9.37972 51.3829 9.33439L50.5061 9.10916C50.1647 9.02416 49.8915 8.89101 49.6867 8.70969C49.4818 8.52837 49.3794 8.2748 49.3794 7.949C49.3767 7.69118 49.4354 7.46453 49.5556 7.26905C49.6758 7.07356 49.856 6.91916 50.0964 6.80583C50.3368 6.69251 50.6359 6.63585 50.9937 6.63585C51.4526 6.63585 51.8227 6.7435 52.104 6.95882C52.3881 7.1713 52.5356 7.48436 52.5465 7.898H51.8787C51.8514 7.68835 51.7599 7.52261 51.6042 7.40079C51.4512 7.27613 51.245 7.2138 50.9855 7.2138C50.7151 7.2138 50.4952 7.27046 50.3258 7.38379C50.1565 7.49428 50.0718 7.6671 50.0718 7.90225C50.0718 8.05807 50.1319 8.18131 50.2521 8.27197C50.3723 8.3598 50.5498 8.43346 50.7847 8.49295L51.6329 8.71394C51.8295 8.76777 51.9907 8.83859 52.1163 8.92642C52.2447 9.01425 52.3458 9.11199 52.4195 9.21965C52.496 9.32731 52.5493 9.44063 52.5793 9.55962C52.6121 9.67578 52.6285 9.78769 52.6285 9.89535C52.6285 10.1645 52.5629 10.3968 52.4318 10.5923C52.3034 10.7849 52.1177 10.9351 51.8746 11.0428C51.6342 11.1476 51.342 11.2 50.9978 11.2Z" fill="#637381"/>
<defs>
<linearGradient id="paint0_linear_3419_20530" x1="11.4442" y1="2.61045" x2="-1.15002" y2="6.40669" gradientUnits="userSpaceOnUse">
<stop stop-color="#00543A"/>
<stop offset="1" stop-color="#048845"/>
</linearGradient>
</defs>
</svg>
